<svg width="172" height="172" viewBox="0 0 172 172" fill="none" xmlns="http://www.w3.org/2000/svg">
<g clip-path="url(#clip0_337_16)">
<path d="M3.5343 61.1989V110.8C3.5343 114.044 6.14993 116.685 9.39462 116.685H36.137V55.3151H9.39462C7.83667 55.3151 6.35019 55.9465 5.24966 57.0373C4.14909 58.1425 3.5343 59.6345 3.5343 61.1989Z" fill="white"/>
<path d="M101.821 17.0534L46.6849 55.2585V116.728L101.821 154.948C103.586 156.199 105.906 156.342 107.828 155.336C109.736 154.315 110.932 152.302 110.932 150.13V21.8695C110.932 19.6983 109.736 17.6853 107.828 16.6642C105.906 15.6577 103.586 15.8024 101.821 17.0534Z" fill="white"/>
<path d="M132.694 61.593C130.863 59.7031 127.829 59.6043 125.883 61.3814C123.937 63.2149 123.836 66.2475 125.668 68.1936C130.333 72.9748 132.966 79.3356 132.995 85.9647C133.009 92.5793 130.462 98.9405 125.883 103.764C124.953 104.667 124.437 105.894 124.437 107.177C124.437 108.461 124.953 109.688 125.883 110.59C126.827 111.465 128.101 111.93 129.403 111.888C130.705 111.845 131.922 111.281 132.809 110.336C145.831 96.6272 145.831 75.3022 132.809 61.5931L132.694 61.593Z" fill="white"/>
<path d="M150.966 43.3704C149.1 41.448 146.022 41.3911 144.084 43.2422C142.146 45.1076 142.089 48.1835 143.956 50.1199C163.264 70.141 163.264 101.84 143.956 121.861C142.573 123.285 142.189 125.406 142.987 127.215C143.785 129.038 145.623 130.177 147.603 130.106C148.986 130.163 150.311 129.607 151.251 128.61C162.295 117.162 168.466 101.883 168.466 85.9925C168.466 70.1024 162.295 54.8217 151.251 43.3746L150.966 43.3704Z" fill="white"/>
</g>
<defs>
<clipPath id="clip0_337_16">
<rect width="172" height="172" fill="white"/>
</clipPath>
</defs>
</svg>
